<?xml version="1.0" standalone="no"?>
<!DOCTYPE svg PUBLIC "-//W3C//DTD SVG 20010904//EN"
 "http://www.w3.org/TR/2001/REC-SVG-20010904/DTD/svg10.dtd">
<svg version="1.0" xmlns="http://www.w3.org/2000/svg"
 width="222.000000pt" height="166.000000pt" viewBox="0 0 222.000000 166.000000"
 preserveAspectRatio="xMidYMid meet">

<g transform="translate(0.000000,166.000000) scale(0.100000,-0.100000)"
fill="#000000" stroke="none">
<path d="M1020 1411 c-5 -11 -10 -42 -10 -70 0 -49 -1 -51 -27 -51 -16 0 -156
-7 -313 -16 -263 -15 -286 -17 -302 -36 -16 -17 -18 -42 -18 -182 0 -118 4
-167 13 -180 12 -16 50 -20 328 -36 173 -10 315 -18 317 -19 1 -1 2 -12 2 -26
0 -30 22 -29 -240 -10 -260 19 -256 19 -280 -5 -19 -19 -20 -33 -20 -205 0
-172 1 -186 20 -205 24 -24 26 -24 290 -5 113 8 211 15 218 15 9 0 12 -32 12
-125 l0 -125 40 0 40 0 0 125 c0 92 3 127 13 130 6 2 122 11 257 19 300 20
280 8 280 171 0 163 20 151 -280 170 -135 9 -251 18 -257 20 -15 5 -18 41 -4
49 4 3 116 -1 247 -9 131 -8 269 -15 305 -15 102 0 99 -8 99 273 l0 237 -26
16 c-24 16 -44 16 -312 0 -158 -9 -295 -16 -304 -16 -15 0 -18 9 -18 53 0 29
-5 58 -12 65 -18 18 -46 14 -58 -7z m681 -121 c18 -10 19 -23 19 -229 0 -168
-3 -221 -13 -229 -10 -8 -91 -7 -293 3 -153 8 -430 21 -614 30 -184 8 -354 18
-377 21 l-43 5 0 164 c0 90 4 166 9 169 5 3 152 13 327 22 318 16 942 50 957
53 5 0 17 -4 28 -9z m-691 -551 c195 -11 405 -22 465 -26 61 -3 116 -10 123
-16 8 -6 12 -44 12 -122 0 -78 -4 -116 -12 -123 -7 -5 -232 -21 -503 -36 -269
-14 -507 -29 -528 -32 -65 -10 -67 -4 -67 190 0 115 4 176 11 183 7 7 36 10
78 7 36 -3 226 -14 421 -25z"/>
<path d="M1605 1273 c-53 -4 -1130 -53 -1178 -53 l-37 0 0 -160 c0 -123 3
-160 13 -160 7 0 145 -7 307 -15 377 -19 927 -45 963 -45 l27 0 -2 218 -3 217
-25 1 c-14 0 -43 -1 -65 -3z m-687 -145 c18 -18 15 -41 -13 -82 -32 -48 -32
-54 8 -59 24 -3 21 -4 -15 -5 -27 -1 -48 1 -48 5 0 3 14 28 31 55 31 48 33 78
4 78 -9 0 -18 -7 -21 -15 -4 -8 -10 -12 -15 -9 -5 3 -5 13 1 25 12 21 50 25
68 7z m112 -42 c0 -34 5 -57 13 -60 10 -5 10 -7 0 -12 -7 -3 -13 -12 -13 -20
0 -8 -4 -14 -10 -14 -5 0 -10 7 -10 15 0 9 -9 15 -23 15 -13 0 -27 3 -30 6 -8
8 52 124 64 124 5 0 9 -24 9 -54z m79 -38 c-20 -69 -39 -107 -39 -81 0 23 53
178 57 166 2 -6 -6 -44 -18 -85z m141 86 c0 -20 -54 -154 -62 -154 -12 0 -8
16 21 88 l21 52 -35 0 c-19 0 -35 5 -35 10 0 6 20 10 45 10 25 0 45 -3 45 -6z"/>
<path d="M992 1065 c-15 -33 -15 -35 3 -35 10 0 15 10 15 30 0 37 -3 37 -18 5z"/>
<path d="M530 575 l0 -165 38 0 c20 0 98 4 172 10 144 10 795 50 823 50 15 0
17 14 17 105 l0 105 -25 0 c-23 0 -503 29 -824 50 -85 5 -165 10 -178 10 l-23
0 0 -165z m290 1 c0 -58 -2 -64 -22 -70 -16 -4 -28 0 -39 13 -13 16 -17 17
-25 4 -15 -24 -46 -20 -63 8 -13 24 -13 29 2 53 21 31 31 32 56 7 18 -18 18
-18 30 0 6 11 18 19 26 19 8 0 15 7 15 15 0 8 5 15 10 15 6 0 10 -28 10 -64z
m-162 40 c-13 -9 -18 -27 -18 -60 0 -34 -4 -46 -15 -46 -11 0 -15 12 -15 50 0
38 -4 50 -15 50 -8 0 -15 5 -15 10 0 6 21 10 48 10 41 -1 45 -2 30 -14z m352
-21 l15 -30 3 33 c6 56 22 35 22 -28 0 -68 -11 -75 -40 -27 l-20 32 0 -32 c0
-23 -5 -33 -15 -33 -12 0 -15 13 -15 61 0 52 2 60 17 57 10 -2 25 -17 33 -33z
m179 -9 c-13 -14 -11 -66 3 -66 9 0 9 -3 0 -12 -17 -17 -28 -1 -35 53 -7 53 8
79 29 51 8 -10 9 -21 3 -26z m41 34 c0 -5 -4 -10 -10 -10 -5 0 -10 5 -10 10 0
6 5 10 10 10 6 0 10 -4 10 -10z m119 -49 c1 -33 -3 -62 -9 -66 -6 -4 -10 17
-10 59 0 82 16 88 19 7z m-451 27 c20 -20 15 -76 -9 -88 -16 -9 -25 -8 -40 6
-23 21 -24 42 -3 72 17 25 34 28 52 10z m236 -10 c20 -29 20 -41 -2 -68 -26
-32 -62 -13 -62 33 0 56 36 75 64 35z m160 16 c9 -3 16 -16 16 -27 0 -16 -3
-18 -12 -9 -7 7 -16 12 -20 12 -12 0 -10 -48 2 -55 6 -3 10 -1 10 4 0 6 5 11
10 11 16 0 11 -27 -6 -34 -44 -17 -74 52 -38 88 18 18 17 18 38 10z m124 -6
c7 -7 12 -29 12 -49 0 -30 -4 -38 -22 -43 -29 -7 -54 16 -43 41 5 10 7 24 6
32 -1 8 3 18 11 22 17 12 22 11 36 -3z m76 6 c26 -10 20 -37 -6 -29 l-23 7 23
-17 c38 -28 20 -75 -22 -59 -20 8 -29 34 -11 34 8 0 15 -5 15 -11 0 -5 5 -7
11 -4 6 5 3 13 -10 22 -23 16 -28 49 -8 56 6 3 13 6 14 6 1 1 8 -2 17 -5z
m-264 -49 c0 -25 -4 -45 -10 -45 -5 0 -10 20 -10 45 0 25 5 45 10 45 6 0 10
-20 10 -45z"/>
<path d="M690 556 c0 -14 4 -27 9 -31 12 -7 25 31 16 45 -11 18 -25 10 -25
-14z"/>
<path d="M774 565 c-8 -20 3 -48 16 -40 13 8 13 55 0 55 -6 0 -13 -7 -16 -15z"/>
<path d="M862 556 c2 -15 8 -26 13 -26 15 0 12 43 -3 48 -10 3 -13 -4 -10 -22z"/>
<path d="M1092 555 c4 -33 22 -33 26 0 2 18 -1 25 -13 25 -12 0 -15 -7 -13
-25z"/>
<path d="M1390 540 c0 -5 5 -10 10 -10 6 0 10 5 10 10 0 6 -4 10 -10 10 -5 0
-10 -4 -10 -10z"/>
</g>
</svg>
